<svg id="Layer_2" viewBox="0 0 512 512" xmlns="http://www.w3.org/2000/svg" data-name="Layer 2"><g id="Icon"><g id="_02" data-name="02"><g><g><path d="m412 0h-312c-55.23 0-100 44.77-100 100v312c0 55.23 44.77 100 100 100h312c55.23 0 100-44.77 100-100v-312c0-55.23-44.77-100-100-100zm80 412c0 44.11-35.89 80-80 80h-312c-44.11 0-80-35.89-80-80v-312c0-44.11 35.89-80 80-80h312c44.11 0 80 35.89 80 80z"/><circle cx="256" cy="256" r="20"/></g><path d="m412 60h-312c-22.06 0-40 17.94-40 40v312c0 22.06 17.94 40 40 40h312c22.06 0 40-17.94 40-40v-312c0-22.06-17.94-40-40-40zm-22.44 107.34 12.99-7.5c4.78-2.76 10.9-1.12 13.66 3.66s1.12 10.9-3.66 13.66l-12.99 7.5c-4.78 2.76-10.9 1.12-13.66-3.66s-1.12-10.9 3.66-13.66zm-143.56-76.34c0-5.52 4.48-10 10-10s10 4.48 10 10v15c0 5.52-4.48 10-10 10s-10-4.48-10-10zm-175 165c0-5.52 4.48-10 10-10h15c5.52 0 10 4.48 10 10s-4.48 10-10 10h-15c-5.52 0-10-4.48-10-10zm51.44 88.66-12.99 7.5c-4.78 2.76-10.9 1.12-13.66-3.66s-1.12-10.9 3.66-13.66l12.99-7.5c4.78-2.76 10.9-1.12 13.66 3.66s1.12 10.9-3.66 13.66zm3.66-163.66c-2.76 4.78-8.88 6.42-13.66 3.66l-12.99-7.5c-4.78-2.76-6.42-8.88-3.66-13.66s8.88-6.42 13.66-3.66l12.99 7.5c4.78 2.76 6.42 8.88 3.66 13.66zm58.56 218.56-7.5 12.99c-2.76 4.78-8.88 6.42-13.66 3.66s-6.42-8.88-3.66-13.66l7.5-12.99c2.76-4.78 8.88-6.42 13.66-3.66s6.42 8.88 3.66 13.66zm-3.66-273.47c-4.78 2.76-10.9 1.12-13.66-3.66l-7.5-12.99c-2.76-4.78-1.12-10.9 3.66-13.66s10.9-1.12 13.66 3.66l7.5 12.99c2.76 4.78 1.12 10.9-3.66 13.66zm85 294.9c0 5.52-4.48 10-10 10s-10-4.48-10-10v-15c0-5.52 4.48-10 10-10s10 4.48 10 10zm53.64-214.5-29.2 29.2c3.52 5.96 5.56 12.89 5.56 20.3 0 18.6-12.77 34.28-30 38.73v71.27c0 5.52-4.48 10-10 10s-10-4.48-10-10v-71.27c-17.23-4.45-30-20.13-30-38.73 0-22.06 17.94-40 40-40 7.41 0 14.35 2.03 20.3 5.56l29.2-29.2c3.91-3.91 10.24-3.91 14.14 0 3.91 3.91 3.91 10.24 0 14.14zm28.86 209.71c-4.78 2.76-10.9 1.12-13.66-3.66l-7.5-12.99c-2.76-4.78-1.12-10.9 3.66-13.66s10.9-1.12 13.66 3.66l7.5 12.99c2.76 4.78 1.12 10.9-3.66 13.66zm3.66-306.77-7.5 12.99c-2.76 4.78-8.88 6.42-13.66 3.66s-6.42-8.88-3.66-13.66l7.5-12.99c2.76-4.78 8.88-6.42 13.66-3.66s6.42 8.88 3.66 13.66zm64.05 239.05c-2.76 4.78-8.88 6.42-13.66 3.66l-12.99-7.5c-4.78-2.76-6.42-8.88-3.66-13.66s8.88-6.42 13.66-3.66l12.99 7.5c4.78 2.76 6.42 8.88 3.66 13.66zm14.79-82.5h-15c-5.52 0-10-4.48-10-10s4.48-10 10-10h15c5.52 0 10 4.48 10 10s-4.48 10-10 10z"/></g></g></g></svg>