<svg xmlns="http://www.w3.org/2000/svg" viewBox="0 0 64 64" fill="currentColor" aria-hidden="true" focusable="false">
  <path d="m32.01096 64c-.0012 0-.0012 0-.0024 0-.89303 0-1.71515-.48558-2.14543-1.26683l-16.78006-30.6166c-.89664-1.6238-1.53125-3.10096-1.9399-4.51202-.71394-2.53125-.96154-5.16707-.73798-7.84255 1.02524-11.59977 11.35337-20.4291 22.98318-19.72237h.0024c11.375.72115 20.28366 10.22717 20.28366 21.64304 0 2.02043-.28606 4.04207-.85096 6.00962-.38702 1.3726-.98798 2.76923-1.88702 4.39303l-16.77645 30.64545c-.43389.78365-1.256 1.26923-2.14904 1.26923zm.04448-61.53969c-9.83654 0-18.32453 7.62861-19.19833 17.51203-.19832 2.375.02164 4.71755.65385 6.95673.35337 1.22476.91947 2.53606 1.72837 4.0012l16.78126 30.6178 16.75961-30.65025c.80769-1.45914 1.33894-2.68991 1.67548-3.87981.5024-1.7512.75721-3.54447.75721-5.33534 0-10.1202-7.89664-18.54808-17.97837-19.18631-.39423-.02403-.78846-.03605-1.17908-.03605zm-.04448 29.84977c-5.87019 0-10.64544-4.76683-10.64544-10.62741 0-5.86899 4.77524-10.64424 10.64544-10.64424 5.86058 0 10.62741 4.77524 10.62741 10.64424 0 5.86058-4.76683 10.62741-10.62741 10.62741zm0-18.8101c-4.51202 0-8.1839 3.67067-8.1839 8.1827 0 4.50241 3.67188 8.16587 8.1839 8.16587 4.50241 0 8.16587-3.66346 8.16587-8.16587 0-4.51203-3.66346-8.1827-8.16587-8.1827z"/>
</svg>
