<svg id="Layer_1" enable-background="new 0 0 512 512" viewBox="0 0 512 512" xmlns="http://www.w3.org/2000/svg"><g id="Layer_2_00000142152971404505085170000008300666215216542612_"><g id="Layer_1_copy_13"><g id="_12"><path d="m89.6 386.1c-32.9-45.2-49.6-96.1-49.6-151.3v-130.2l168.8-63.3 168.8 63.3v91.3c13.3-2.4 26.9-1.9 40 1.6v-106.7c0-8.3-5.2-15.8-13-18.7l-188.8-70.8c-4.5-1.7-9.5-1.7-14 0l-188.8 70.8c-7.8 2.9-13 10.4-13 18.7v144c0 63.8 19.2 122.7 57.2 174.9 38.3 52.6 87.6 86.9 146.7 101.7 3.2.8 6.6.8 9.8 0 18.1-4.6 35.7-11.1 52.3-19.6v-45.8c-17.7 11.3-37 19.9-57.2 25.4-48.2-13.3-87.3-41.2-119.2-85.3z"/><path d="m492.7 317.2h-16.2v-30.4c0-45.6-36.9-82.5-82.5-82.5s-82.5 36.9-82.5 82.5v30.4h-16.2c-10.7 0-19.3 8.7-19.3 19.3v156.1c0 10.7 8.7 19.3 19.3 19.3h197.4c10.7 0 19.3-8.7 19.3-19.3v-156c0-10.7-8.7-19.4-19.3-19.4zm-142.6-30.4c0-24.2 19.6-43.8 43.8-43.8s43.8 19.6 43.8 43.8v.1 30.4h-87.6zm123.2 186.5h-158.7v-117.4h158.8v117.4z"/></g></g></g></svg>