<svg xmlns="http://www.w3.org/2000/svg" viewBox="0 0 512 512" fill="currentColor" aria-hidden="true" focusable="false">
  <path d="M467,211a44.93079,44.93079,0,0,0-42.23828,30H329.48047a74.70316,74.70316,0,0,0-24.168-41.05859l62.71094-110.7461a45.52118,45.52118,0,1,0-25.98438-15l-62.77734,110.8711a72.314,72.314,0,0,0-64.55469,8.42968L85.48828,64.27734A44.45312,44.45312,0,0,0,90,45,45,45,0,1,0,45,90a44.45312,44.45312,0,0,0,19.27734-4.51172L193.49609,214.707a74.47376,74.47376,0,0,0,0,82.58594L95.27734,395.51172A44.45326,44.45326,0,0,0,76,391a45,45,0,1,0,45,45,44.45312,44.45312,0,0,0-4.51172-19.27734L214.707,318.50391A74.41133,74.41133,0,0,0,241,329.48047v95.28125a45.00039,45.00039,0,1,0,30,0V329.48047A75.18979,75.18979,0,0,0,329.48047,271h95.28125A44.92217,44.92217,0,1,0,467,211Z"/>
</svg>
