<svg xmlns="http://www.w3.org/2000/svg" viewBox="0 0 512 445.71295" fill="currentColor" aria-hidden="true" focusable="false">
  <g transform="translate(0 -32.99356)">
    <path fill-rule="evenodd" d="M393.52314,478.70651H57.88869A58.11717,58.11717,0,0,1,0,420.81781V152.0703c0-31.79379,26.0949-57.88869,58.18864-57.88869H178.46515A7.91739,7.91739,0,0,1,184.164,96.2812l53.38958,44.39133,204.2601.89982a9.02384,9.02384,0,0,1,8.99825,8.99824V421.4177A57.47665,57.47665,0,0,1,393.52314,478.70651ZM58.18864,112.17809A40.13179,40.13179,0,0,0,17.99649,152.0703V420.81781A40.13178,40.13178,0,0,0,58.18864,460.71h335.3345a39.42725,39.42725,0,0,0,39.29233-39.29232V159.56884L234.25425,158.669a9.46953,9.46953,0,0,1-5.69889-2.09959l-53.38957-44.39133Z"/>
    <path fill-rule="evenodd" d="M454.41125,417.8184H441.81371a9.22594,9.22594,0,0,1-8.99824-8.99824,9.02384,9.02384,0,0,1,8.99824-8.99825h12.59754a39.55453,39.55453,0,0,0,39.59227-39.59226V98.38079L295.4423,97.481a7.91743,7.91743,0,0,1-5.69889-2.09959L236.35384,50.99H119.07674a39.93957,39.93957,0,0,0-39.8922,40.19215v11.99766a9.22594,9.22594,0,0,1-8.99825,8.99824,9.02384,9.02384,0,0,1-8.99824-8.99824V91.18219a57.98813,57.98813,0,0,1,57.88869-58.18863H239.6532a10.22821,10.22821,0,0,1,5.69888,2.09959l53.38957,44.39133,204.26011,1.19976A9.02384,9.02384,0,0,1,512,89.68248V360.22965A57.60361,57.60361,0,0,1,454.41125,417.8184Z"/>
    <path fill-rule="evenodd" d="M365.62859,237.25366H85.18336a8.83762,8.83762,0,0,1-8.99824-8.99824,9.02384,9.02384,0,0,1,8.99824-8.99824H365.62859a9.02384,9.02384,0,0,1,8.99824,8.99824A8.83762,8.83762,0,0,1,365.62859,237.25366Z"/>
    <path fill-rule="evenodd" d="M365.62859,291.54306H85.18336a8.83763,8.83763,0,0,1-8.99824-8.99824,9.02384,9.02384,0,0,1,8.99824-8.99824H365.62859a9.02384,9.02384,0,0,1,8.99824,8.99824A8.83762,8.83762,0,0,1,365.62859,291.54306Z"/>
    <path fill-rule="evenodd" d="M365.62859,346.1324H85.18336a9.02384,9.02384,0,0,1-8.99824-8.99824,8.83763,8.83763,0,0,1,8.99824-8.99825H365.62859a8.83763,8.83763,0,0,1,8.99824,8.99825A9.02384,9.02384,0,0,1,365.62859,346.1324Z"/>
    <path fill-rule="evenodd" d="M365.62859,400.4218H85.18336a9.02384,9.02384,0,0,1-8.99824-8.99825,8.83763,8.83763,0,0,1,8.99824-8.99824H365.62859a8.83762,8.83762,0,0,1,8.99824,8.99824A9.02384,9.02384,0,0,1,365.62859,400.4218Z"/>
  </g>
</svg>
