<svg xmlns="http://www.w3.org/2000/svg" viewBox="0 0 512.00098 511.99951" fill="currentColor" aria-hidden="true" focusable="false">
  <g transform="translate(0 -.00018)">
    <path d="M507.60938,435.80878l-39.98047-39.98047,39.09765-39.10156a15.00982,15.00982,0,0,0-6.89453-25.14063l-34.49609-8.8125A238.3557,238.3557,0,0,0,480,240.00018c0-132.64453-107.33984-240-240-240-132.64844,0-240,107.33985-240,240C0,372.64862,107.33984,480.00409,240,480.00409a238.46261,238.46261,0,0,0,82.77344-14.67578l8.8125,34.50781a15.00994,15.00994,0,0,0,25.14062,6.89063l39.10157-39.09766,39.98046,39.98047a15.00515,15.00515,0,0,0,21.21094,0l50.58985-50.58985A15.00161,15.00161,0,0,0,507.60938,435.80878ZM363.50781,296.7619c1.707-13.668,2.793-27.63281,3.24219-41.76172h82.71484a207.60325,207.60325,0,0,1-13.37109,60.30469ZM30.543,255.00018h82.70312a436.52176,436.52176,0,0,0,8.71875,75H50.28906A208.33862,208.33862,0,0,1,30.543,255.00018Zm19.74609-105h71.67578a436.6131,436.6131,0,0,0-8.71875,75H30.543A208.381,208.381,0,0,1,50.28906,150.00018Zm399.17188,75H366.75781a436.99993,436.99993,0,0,0-8.71875-75h71.67188A208.38524,208.38524,0,0,1,449.46094,225.00018Zm-112.71485,0H255v-75h72.35547A401.06067,401.06067,0,0,1,336.74609,225.00018ZM255,120.00018v-87.207c31.95313,11.793,53.25,54.85938,64.03125,87.207Zm-30-87.207v87.207H160.97266C171.75,87.65643,193.082,44.5744,225,32.79315Zm0,117.207v75H143.25781a401.06635,401.06635,0,0,1,9.38672-75Zm-81.74219,105H225v75H152.64453A401.02489,401.02489,0,0,1,143.25781,255.00018Zm81.74219,105v87.21094c-31.94922-11.79687-53.25-54.86328-64.02734-87.21094ZM255,447.215V360.00018h40.86328l8.82813,34.54688C290.51172,422.21893,273.043,440.5705,255,447.215Zm43.36328-167.09375a15.00955,15.00955,0,0,0-18.24609,18.24609l8.082,31.63281H255v-75h81.73828c-.39062,11.582-1.24219,23.03516-2.53906,34.27344Zm113.875-160.1211H350.46875c-7.96875-26.625-19.85547-54.22265-36.57422-76.5664A211.13022,211.13022,0,0,1,412.23828,120.00018ZM166.10547,43.43378c-16.71875,22.34375-28.60547,49.9414-36.57031,76.5664H67.76563A211.10058,211.10058,0,0,1,166.10547,43.43378ZM67.76563,360.00018h61.76953c7.96875,26.62891,19.85156,54.22657,36.57031,76.56641A211.07588,211.07588,0,0,1,67.76563,360.00018ZM313.87109,436.633c.39063-.51954.77344-1.06641,1.16407-1.59766l.26953,1.06641C314.82813,436.28534,314.34766,436.45331,313.87109,436.633Zm132.543,39.15625-39.98047-39.98047a15.00159,15.00159,0,0,0-21.21093,0l-31.08594,31.08593L315.44531,315.4494l151.44922,38.6875-31.08594,31.08594a15.00162,15.00162,0,0,0,0,21.21094l39.98047,39.98047Z"/>
  </g>
</svg>
