<svg xmlns="http://www.w3.org/2000/svg" viewBox="0 0 512 511.99609" fill="currentColor" aria-hidden="true" focusable="false">
  <path d="M473.60156,332.80078a37.89023,37.89023,0,0,0-12.80078,2.35938V294.40234A12.8,12.8,0,0,0,448,281.60156H384V230.40234h64a12.8,12.8,0,0,0,12.80078-12.80078V176.84375a37.98581,37.98581,0,0,0,12.80078,2.35938,38.4004,38.4004,0,1,0-38.40234-38.40235v64H384v-64a12.7983,12.7983,0,0,0-12.79687-12.79687H307.19922V76.80078h64a38.40039,38.40039,0,1,0-38.39844-38.40234,37.89023,37.89023,0,0,0,2.35938,12.80078H294.40234A12.8,12.8,0,0,0,281.60156,64v64H230.40234V64a12.8,12.8,0,0,0-12.80078-12.80078H176.84375a37.96355,37.96355,0,0,0,2.35938-12.79688,38.40235,38.40235,0,1,0-38.40235,38.39844h64V128h-64A12.79914,12.79914,0,0,0,128,140.79688v64H76.80078v-64a38.40039,38.40039,0,1,0-38.40234,38.40234,37.89,37.89,0,0,0,12.80078-2.35938v40.75782A12.8,12.8,0,0,0,64,230.39844h64v51.19922H64a12.8,12.8,0,0,0-12.80078,12.80078v40.75781a37.96354,37.96354,0,0,0-12.79688-2.35937,38.40234,38.40234,0,1,0,38.39844,38.40234v-64H128v64A12.79914,12.79914,0,0,0,140.79688,384h64v51.19922h-64a38.39844,38.39844,0,1,0,38.40234,38.39844,37.90752,37.90752,0,0,0-2.35938-12.80078h40.75782A12.79914,12.79914,0,0,0,230.39844,448V383.99609h51.19922V448a12.79914,12.79914,0,0,0,12.80078,12.79688h40.75781a37.90751,37.90751,0,0,0-2.35937,12.80078,38.40039,38.40039,0,1,0,38.39843-38.39844H307.19922V384h64A12.80246,12.80246,0,0,0,384,371.19922v-64h51.19922v64a38.39844,38.39844,0,1,0,38.40234-38.39844ZM332.80078,320A12.8,12.8,0,0,1,320,332.80078H192A12.8,12.8,0,0,1,179.19922,320V192A12.80246,12.80246,0,0,1,192,179.19922H320A12.80246,12.80246,0,0,1,332.80078,192Z"/>
  <path d="M204.80078,204.80078H307.19922V307.19922H204.80078Z"/>
</svg>
