<svg xmlns="http://www.w3.org/2000/svg" viewBox="0 0 158.45 189.19"><defs><style>.cls-1{fill:#78b589;}.cls-2{fill:#1e3b4d;}</style></defs><g id="Layer_2" data-name="Layer 2"><g id="Layer_1-2" data-name="Layer 1"><path class="cls-1" d="M90.37,176.38c-.1,0-.25.06-.36.11a.31.31,0,0,0-.12.17,10.53,10.53,0,0,1-1.48,2.79,27.21,27.21,0,0,1-3.15,4.31A8.07,8.07,0,0,1,83,185.59a.5.5,0,0,1-.13.26c-.31.3-.62.62-.91.94a1.3,1.3,0,0,0,.61-.06c.84-.29,1.72-.49,2.53-.84a5.38,5.38,0,0,0,2.8-2.15.6.6,0,0,1,.22-.14c.06.09.12.14.12.2,0,.75,0,1.5,0,2.25a2.69,2.69,0,0,0,.09.7.3.3,0,0,0,.22.19.47.47,0,0,0,.35-.14.85.85,0,0,0,.18-.46c.06-.58.09-1.16.14-1.74a32.73,32.73,0,0,1,1.35-7.35,1.75,1.75,0,0,0,.09-.6A.41.41,0,0,0,90.37,176.38Z"></path><path class="cls-1" d="M90.52,134.82c0-.25.09-.41.1-.57a35.64,35.64,0,0,0,.27-4.5,1.49,1.49,0,0,1,0-.21.3.3,0,0,1,.47-.2,5.23,5.23,0,0,1,.64.5l2.72,2.5a1.5,1.5,0,0,0,.36.17c0-.11.08-.18.06-.24-.39-1.38-.78-2.76-1.19-4.13-.08-.26-.24-.49-.33-.75a3,3,0,0,1-.14-.59.26.26,0,0,1,.35-.25,1.73,1.73,0,0,1,.36.18L98,129.56c.35.26.68.57,1,.84a2.37,2.37,0,0,0,.41.22c.32-.19.15-.4.09-.57-.35-1.14-.72-2.28-1.08-3.42l0-.1c-.07-.19-.19-.39,0-.57s.37-.1.57,0l2.14.7a20.08,20.08,0,0,0,5,1c.48,0,.95.1,1.43.13.23,0,.47,0,.65,0a.34.34,0,0,0-.06-.51,55.92,55.92,0,0,0-5.28-5.16c-.32-.26-.32-.32-.1-.82A33,33,0,0,0,115.42,124c0-.25-.15-.32-.3-.39a26.43,26.43,0,0,1-4.88-3c-.39-.28-.55-.53-.43-.71s.46-.24.74-.25a20.65,20.65,0,0,0,4.07-.47l4-.85a47.09,47.09,0,0,0,6.66-2.07,4,4,0,0,0,.51-.3c-.18-.12-.28-.24-.38-.24a17.13,17.13,0,0,1-3.56-.48c-.8-.17-1.62-.21-2.43-.33-1-.15-2-.29-2.94-.49-1.51-.31-3-.41-4.57-.63-1.35-.21-2.7-.44-4-.67a3.09,3.09,0,0,1-.59-.18c-.18-.06-.31-.22-.23-.39a.67.67,0,0,1,.38-.27,1.48,1.48,0,0,1,.51,0,8.29,8.29,0,0,0,2,0c.87-.14,1.76-.25,2.64-.34a32.63,32.63,0,0,0,8.9-2.37,46.63,46.63,0,0,0,5.85-3,37.21,37.21,0,0,0,7.23-5.56c.78-.76,1.5-1.58,2.25-2.38,0,0,0-.06,0-.13s-.14-.14-.21-.14a9.47,9.47,0,0,1-2.65-.26c-1.45-.23-2.9-.49-4.35-.74l-2.32-.43c-.1,0-.23,0-.28-.1a.82.82,0,0,1-.22-.42c0-.09.15-.2.25-.28a.41.41,0,0,1,.19,0,20.88,20.88,0,0,0,6.94-2.43,35.4,35.4,0,0,0,5.44-3.49,37.59,37.59,0,0,0,3.6-3.2c1.25-1.26,2.39-2.64,3.58-4,.09-.1.16-.22.29-.39a1.3,1.3,0,0,0-.39-.11c-.38,0-.75.08-1.12.08l-8.22,0a3.08,3.08,0,0,1-.61,0,.33.33,0,0,1-.2-.2.28.28,0,0,1,.07-.27.33.33,0,0,1,.21-.09,17.21,17.21,0,0,0,2.58-1.12c.35-.16,1.53-.81,2.87-1.6a16.81,16.81,0,0,0,3.31-2.75,31.71,31.71,0,0,0,4.68-5.71c.54-.87,1-1.78,1.52-2.67a28.86,28.86,0,0,0,2.48-5.74,13.52,13.52,0,0,0,.86-4.51c-.22-.18-.45,0-.65,0-1.14.54-2.29,1.09-3.42,1.65-.77.39-1.82,1-4,2.06a17.18,17.18,0,0,1-2.78,1.14s.19-.21.61-.55a7.45,7.45,0,0,1,.61-.48A32.18,32.18,0,0,0,148,59.68a28.57,28.57,0,0,0,3.25-3.84,20.94,20.94,0,0,0,3.34-6.78c.35-1.15.77-3.85.85-4s.22-.24.31-.22.36.13.39.25a2.21,2.21,0,0,1,.06.81c-.18,3-.38,5.94-.56,8.92,0,.47,0,1,0,1.43s-.05.89-.09,1.41a17.21,17.21,0,0,1,.61,1.95,20.19,20.19,0,0,1,.57,3.66,19.15,19.15,0,0,1-.57,6.79c-.47,1.57-.78,3.19-1.2,4.78a2.2,2.2,0,0,0,0,1.11c.61,2.59,1.23,5.19,1.82,7.79.21.93.35,1.88.53,2.82s.39,1.75.47,2.63c.22,2.28.4,4.57.56,6.85.08,1.06.11,2.12.14,3.18a55.34,55.34,0,0,1-.41,7.28c-.16,1.67-.32,3.34-.51,5-.14,1.15-.36,2.3-.5,3.45a39.86,39.86,0,0,1-1,4.7c-.76,3.06-1.79,6-2.84,9a45.52,45.52,0,0,1-2.08,4.69c-.88,1.82-1.8,3.61-2.77,5.39a34.79,34.79,0,0,1-1.86,2.95c-1.57,2.32-3.19,4.62-4.75,7a33.43,33.43,0,0,1-3.07,3.85,65.92,65.92,0,0,1-5.74,5.72c-.75.65-1.47,1.34-2.19,2a5.16,5.16,0,0,1-2.86,1.49c-.94.14-1.86.43-2.79.66a18.73,18.73,0,0,1-4.9.32,31.36,31.36,0,0,1-5.29-.66,26.65,26.65,0,0,1-4.73-1.36,36.4,36.4,0,0,1-5.38-2.76,56.82,56.82,0,0,1-5.69-4,32.42,32.42,0,0,1-2.8-2.57c-2-2.05-3.9-4.14-5.84-6.22a41.35,41.35,0,0,1-3.94-5c-1.53-2.23-3.07-4.46-4.64-6.66a11.32,11.32,0,0,1-1.71-4,.39.39,0,0,1,0-.3.94.94,0,0,1,.28-.24.12.12,0,0,1,.1,0,35,35,0,0,0,4.4,1,3.23,3.23,0,0,1,1.78.94c.32.36.65.71,1,1.06.8.89,1.6,1.79,2.41,2.67A2.17,2.17,0,0,0,90.52,134.82Z"></path><path class="cls-1" d="M130,162.1a1.23,1.23,0,0,1,.09,1c-.48,1.6-.88,3.24-1.48,4.79a16.91,16.91,0,0,1-1.62,3.31,15.72,15.72,0,0,1-6.69,5.74,24.23,24.23,0,0,1-5.16,1.64,25.6,25.6,0,0,1-4.7.43c-1.13,0-2.25.07-3.38.11h-.41c-1.61-.07-3.22-.11-4.82-.21s-3.08-.22-4.61-.34a3.09,3.09,0,0,1-.78-.2c-.08,0-.14-.22-.15-.34s.13-.17.21-.19a2.19,2.19,0,0,1,.51,0c.65,0,1.3,0,1.95,0a48.22,48.22,0,0,0,5.64-.11c1.36-.12,2.72-.3,4.07-.5a31.9,31.9,0,0,0,9.3-2.78q1.57-.75,3.09-1.62a19.74,19.74,0,0,0,4.54-3.81c.37-.4.72-.83,1.07-1.24a11.87,11.87,0,0,0,2.58-5,2.13,2.13,0,0,1,.15-.49A.43.43,0,0,1,130,162.1Z"></path><path class="cls-1" d="M102,187a12.73,12.73,0,0,1-5.28-.94c-.22-.09-.44-.19-.66-.27a.52.52,0,0,0-.63.22.26.26,0,0,0,0,.09,4.43,4.43,0,0,1-2.56,2.07,7.34,7.34,0,0,1-1.67.51c-.93.19-1.88.32-2.82.49a.82.82,0,0,1-.68-.16.37.37,0,0,1,.07-.6,3.4,3.4,0,0,1,.7-.17,6,6,0,0,0,2.8-1.16,13.82,13.82,0,0,0,3.39-3.39c.21-.31.37-.65.56-1a.49.49,0,0,1,.77-.21A17.74,17.74,0,0,0,98.86,184a15.71,15.71,0,0,0,4.36,1.11,11.59,11.59,0,0,0,3.27-.23,15.07,15.07,0,0,0,4.57-1.46c.54-.29,1.07-.61,1.6-.91a5.56,5.56,0,0,1,.73-.37c.06,0,.18.06.25.12a.19.19,0,0,1,0,.19,2.1,2.1,0,0,1-.43.55c-.49.36-1,.7-1.54,1a19.88,19.88,0,0,1-4.59,2.23A17.61,17.61,0,0,1,102,187Z"></path><path class="cls-2" d="M90.73,35.09a5.88,5.88,0,0,1,.3-.88,21.82,21.82,0,0,0,1.66-4.49c.44-1.54.82-3.1,1.18-4.66a15.12,15.12,0,0,0,.29-2c.09-.75.21-.89,1-.75s1.81.35,2.71.54l3.39.77c.26.06.56.06.68.36s-.09.51-.28.71c-1.75,1.92-3.47,3.86-5.26,5.74-.89.94-1.89,1.77-2.85,2.64-.56.51-1.13,1-1.69,1.5C91.47,34.89,91.48,34.89,90.73,35.09Z"></path><path class="cls-2" d="M154.72,26.62a.29.29,0,0,0-.27,0,3.85,3.85,0,0,0-.65.47c-.51.46-1,1-1.49,1.41-1.69,1.4-3.37,2.81-5.11,4.14-1.93,1.48-3.89,2.91-5.9,4.29A70.22,70.22,0,0,1,134.52,41c-1.41.76-1.45.76-2.68-.32-.65-.57-1.26-1.17-1.92-1.71a81,81,0,0,0-7.3-5.32A74.44,74.44,0,0,0,113,28.15c-3.12-1.4-6.28-2.7-9.52-3.8a1.47,1.47,0,0,0-.5-.09.34.34,0,0,0-.35.31,1.51,1.51,0,0,0,0,.3l0,4.94a3.42,3.42,0,0,1-.07.71c-.26,1.24-.37,2.5-.68,3.73s-.65,2.51-1.06,3.75a29.55,29.55,0,0,1-2.18,4.75,21.83,21.83,0,0,1-4.77,6c-1,.9-2.07,1.79-3.12,2.66-.64.53-1.3,1-2,1.5-.27.21-.55.4-.81.63a.3.3,0,0,0-.06.47,1.11,1.11,0,0,0,.36,0c.47-.21.93-.42,1.39-.66l5-2.57a35.23,35.23,0,0,0,5.9-3.52c.43-.33.87-.65,1.33-1a.43.43,0,0,1,.36,0,.4.4,0,0,1,.08.36c-.15.63-.34,1.25-.49,1.89a13.41,13.41,0,0,1-4.54,7.38c-.89.75-1.86,1.4-2.78,2.11a3.17,3.17,0,0,0-.39.52c.53.09,1,.15,1.39.25a3.86,3.86,0,0,1,2.88,4.45,4,4,0,0,1-2.65,3.14,107.76,107.76,0,0,0-10.57,4.77,65.85,65.85,0,0,0-7.54,4.58,47.44,47.44,0,0,0-6.53,5.47A49.55,49.55,0,0,0,67.72,85a31.13,31.13,0,0,0-4.3,7.21c-.57,1.32-1.07,2.66-1.66,4.13-.48-.67-.93-1.27-1.35-1.89a44.08,44.08,0,0,1-3-5.24c-.87-1.77-1.69-3.59-2.39-5.45a46.29,46.29,0,0,1-2-6.69,40.93,40.93,0,0,1-.91-7.31,43.37,43.37,0,0,1,.62-9.1c.29-1.62.67-3.22,1.11-4.79a61.1,61.1,0,0,1,2.48-7,33.73,33.73,0,0,1,4.93-8.26c1.12-1.4,2.38-2.66,3.61-3.94a68.51,68.51,0,0,1,7.66-6.68c1-.79,2.09-1.55,3.06-2.41A18.93,18.93,0,0,0,79.87,22c2.95-5.76,5.85-11.54,8.77-17.32.68-1.34,1.34-2.69,2-4a.55.55,0,0,0,.09-.29A.69.69,0,0,0,90.58,0a.31.31,0,0,0-.28,0,2.33,2.33,0,0,0-.5.49A69.42,69.42,0,0,1,85.5,6c-2.12,2.52-4.27,5-6.61,7.31-1.51,1.5-3,3-4.57,4.45-1.18,1.08-2.48,2-3.71,3.07a3.49,3.49,0,0,1-2.79.76,2.42,2.42,0,0,0-.71,0c-.85.11-1.7.23-2.53.4-1.17.24-2.34.49-3.49.79-1.76.46-3.51.93-5.25,1.45a72,72,0,0,0-8.16,3c-1.35.59-2.71,1.16-4,1.84a89.54,89.54,0,0,0-9.58,5.78,83.31,83.31,0,0,0-7.21,5.61,68.85,68.85,0,0,0-6.13,6.07,83.36,83.36,0,0,0-8.61,11.36A81,81,0,0,0,7.21,67c-.86,1.9-1.65,3.83-2.39,5.78S3.51,76.7,2.93,78.66c-.51,1.71-.86,3.46-1.26,5.19-.17.73-.33,1.47-.45,2.21C1,87.48.82,88.9.62,90.32c-.06.48-.16,1-.19,1.42C.3,93.55.18,95.37.07,97.18A78.92,78.92,0,0,0,.26,106c0,.81.09,1.64.2,2.45.17,1.29.41,2.56.57,3.85.21,1.63.55,3.23.9,4.83a72.6,72.6,0,0,0,2.44,8.68,81.72,81.72,0,0,0,4.17,9.82,80.23,80.23,0,0,0,5.71,9.5,77.74,77.74,0,0,0,8.44,10.2,83.12,83.12,0,0,0,8.38,7.41c1.82,1.4,3.72,2.68,5.63,3.95A73.71,73.71,0,0,0,48.58,173a66.53,66.53,0,0,0,7.91,2.85c2.4.68,4.81,1.35,7.26,1.82,1.18.23,2.37.38,3.54.61a45.35,45.35,0,0,0,5.81.68c.85.05,1.7.19,2.54.31a3.65,3.65,0,0,1,1.49.67A11.88,11.88,0,0,1,80,182.86a5.35,5.35,0,0,1,1.15,2.92,1.29,1.29,0,0,0,.05.35c.31-.34.63-.67,1-1a.54.54,0,0,1,.18-.11c.06-.33.11-.66.14-1,.1-1.09.08-2.2.24-3.28a10.62,10.62,0,0,0-.18-3.77,9.75,9.75,0,0,0-.38-1.38A15.76,15.76,0,0,1,81.09,172a16.34,16.34,0,0,1-.06-3.89,26.72,26.72,0,0,1,2.1-7.89c.12-.26.25-.5.06-.76s-.46-.11-.78.24a9.55,9.55,0,0,1-2.13,1.61,2.26,2.26,0,0,1-.74.34,8.72,8.72,0,0,1-2.65.26l-2.75-.28a11.5,11.5,0,0,1-3.27-.84A48,48,0,0,1,65.35,158a74.41,74.41,0,0,1-8.59-5.6,50.55,50.55,0,0,1-9-8.93A42.59,42.59,0,0,1,40.94,131c-.39-1.13-.7-2.29-1-3.45-.21-.82-.37-1.66-.52-2.5-.2-1.15-.39-2.29-.54-3.44-.1-.75-.09-1.51-.16-2.26a34.3,34.3,0,0,1,.23-7.58c.3-2.3.84-4.57,1.26-6.85a4.26,4.26,0,0,0,.11-1.12,11.22,11.22,0,0,0-.33-1.71A7.13,7.13,0,0,0,38.36,99a8.24,8.24,0,0,0-7.15-2.27,3.42,3.42,0,0,1-.46,0c0-.28.16-.34.28-.45.63-.58,1.29-1.13,1.86-1.76a1.92,1.92,0,0,0,.22-2.46,3.36,3.36,0,0,0-1.68-1.58c-.16-.06-.33-.12-.48-.19-.52-.25-.62-.54-.36-1.07a1.17,1.17,0,0,1,.15-.27,7.93,7.93,0,0,1,1.66-1.81,11.86,11.86,0,0,1,3.93-1.95,13.52,13.52,0,0,1,5.27-.65,16.17,16.17,0,0,1,8.32,3.22,28.79,28.79,0,0,1,5.4,5.46,65.28,65.28,0,0,1,5.84,8.93c.3.54.62,1.06.92,1.6a1.11,1.11,0,0,0,.59.54.31.31,0,0,0,.44-.28c0-.44,0-.89,0-1.33a12.69,12.69,0,0,1,.45-2.52,21.54,21.54,0,0,1,2.09-6.09,51.59,51.59,0,0,1,3.48-5.81,36.38,36.38,0,0,1,4.39-5.42c1.26-1.26,2.5-2.54,3.81-3.75A33.84,33.84,0,0,1,83.21,75a90.5,90.5,0,0,1,13.73-6.47c.7-.28,1.41-.53,2.11-.8,2.67-1,5.36-2.07,8-3.18,2.08-.87,4.12-1.84,6.17-2.79,1.43-.67,2.87-1.31,4.24-2.07,4.41-2.42,8.8-4.89,13.18-7.35a16.4,16.4,0,0,0,2-1.29c1.52-1.17,3-2.39,4.5-3.58a32.07,32.07,0,0,0,3.29-3.09q2.91-3.12,5.77-6.28c1.05-1.17,2.11-2.34,3.11-3.56,1.9-2.29,3.62-4.72,5.31-7.17a1.34,1.34,0,0,0,.2-.46A.32.32,0,0,0,154.72,26.62ZM31,91.92c.51.12.66.35.7.87a4.51,4.51,0,0,1,0,.52,1,1,0,0,1-.95,1c-.44,0-.88,0-1.32,0l-3.48,0a2.9,2.9,0,0,1-.42-.11c1-.59,1.87-1.13,2.77-1.61a9,9,0,0,1,1.7-.67A2.07,2.07,0,0,1,31,91.92Z"></path><path class="cls-2" d="M39.07,91.55a5.48,5.48,0,0,1-.81,0,2,2,0,0,1-.68-.2.74.74,0,0,1-.18-1.2,1.78,1.78,0,0,1,2.88.45,1.47,1.47,0,0,1,.08.3.55.55,0,0,1-.47.66l-.2,0h-.62Z"></path></g></g></svg>