<svg xmlns="http://www.w3.org/2000/svg" viewBox="0 0 132.03563 169.37905"><path d="M0,0H132.03563V134.18437L66.09189,169.37905,0,134.18437Z" fill="#fffed2"/><polygon points="18.287 128.365 21.295 125.594 4.631 99.558 4.631 111.153 18.287 128.365" fill="#07adef"/><polygon points="4.631 71.106 29.227 119.561 25.531 122.164 4.631 85.183 4.631 71.106" fill="#07adef"/><polygon points="20.265 68.092 37.152 115.034 33.457 116.977 12.263 68.092 20.265 68.092" fill="#07adef"/><polygon points="4.631 120.823 14.639 132.201 12.884 134.308 4.631 129.936 4.631 120.823" fill="#07adef"/><polygon points="35.009 68.092 45.815 111.529 41.775 112.989 27.822 68.092 35.009 68.092" fill="#07adef"/><polygon points="42.048 68.092 50.018 110.318 54.702 109.32 48.791 68.068 42.048 68.092" fill="#07adef"/><polygon points="56.423 68.068 58.947 108.723 64.054 108.375 62.721 68.092 56.423 68.068" fill="#07adef"/><polygon points="113.674 128.39 110.666 125.619 127.331 99.582 127.331 111.178 113.674 128.39" fill="#07adef"/><polygon points="127.331 71.13 102.735 119.585 106.431 122.189 127.331 85.208 127.331 71.13" fill="#07adef"/><polygon points="111.697 68.117 94.81 115.059 98.504 117.001 119.699 68.117 111.697 68.117" fill="#07adef"/><polygon points="127.331 120.847 117.322 132.226 119.077 134.333 127.331 129.961 127.331 120.847" fill="#07adef"/><polygon points="96.952 68.117 86.146 111.554 90.186 113.014 104.139 68.117 96.952 68.117" fill="#07adef"/><polygon points="89.913 68.117 81.943 110.343 77.259 109.345 83.171 68.092 89.913 68.117" fill="#07adef"/><polygon points="75.539 68.092 73.014 108.747 67.907 108.4 69.241 68.117 75.539 68.092" fill="#07adef"/><path d="M4.63092,68.09248H127.33066V129.961q-30.65641,16.18955-61.31286,32.3791Q35.32434,146.13824,4.63092,129.93632Z" fill="none" stroke="#000" stroke-miterlimit="10"/><rect x="4.84081" y="5.65585" width="122.69978" height="57.10183" fill="#000500"/><text transform="translate(10.35612 53.61526) scale(0.94684 1)" font-size="54.99569" fill="#fffed2" font-family="Verdana-Bold, Verdana" font-weight="700">CSS</text></svg>